<?xml version="1.0" encoding="UTF-8"?>
<svg version="1.1" viewBox="0 0 24.795 26.46" xml:space="preserve" xmlns="http://www.w3.org/2000/svg" xmlns:cc="http://creativecommons.org/ns#" xmlns:dc="http://purl.org/dc/elements/1.1/" xmlns:rdf="http://www.w3.org/1999/02/22-rdf-syntax-ns#"><metadata><rdf:RDF><cc:Work rdf:about=""><dc:format>image/svg+xml</dc:format><dc:type rdf:resource="http://purl.org/dc/dcmitype/StillImage"/><dc:title/></cc:Work></rdf:RDF></metadata><defs><clipPath id="a"><path d="m0 40h40v-40h-40v40z"/></clipPath></defs><g transform="matrix(1.25 0 0 -1.25 -12.096 37.256)"><g clip-path="url(#a)"><g transform="translate(28.981 21.325)"><path d="m0 0-11.125-10.798c-1.59-1.544-4.133-1.5-5.669 0.098l-0.661 0.727c-1.504 1.566-1.486 4.045 0.041 5.587l11.13 11.238c1.142 1.154 2.996 1.189 4.181 0.079l0.161-0.149c1.249-1.17 1.268-3.147 0.041-4.341l-10.515-10.228c-0.591-0.575-1.535-0.568-2.118 0.015-0.591 0.59-0.589 1.55 6e-3 2.138l6.797 6.725" fill="none" stroke="#fff" stroke-miterlimit="10" stroke-width="1.5"/></g></g></g></svg>

