<svg xmlns="http://www.w3.org/2000/svg" width="24" height="27" viewBox="0 0 24 27">
    <path fill="#757575" fill-rule="evenodd" d="M21 16.792c-1.25-.395-3.25-1.053-3.875-1.185-.125 0-.125-.132-.125-.263V7.179c0-.264 0-.396-.25-.527l-4-2.634s-.25-.264-.75-.264c-.375 0-.625.132-.75.264-.875.79-4 2.765-4 2.765-.125.132-.25.264-.25.527v8.165c0 .132 0 .132-.125.264-.5.132-2.375.658-3.625 1.053-1.125.264-1.25.922-1.25 1.45v4.477c0 .922.5 1.317 1.25 1.317h17.5c1.25 0 1.25-1.054 1.25-1.844v-3.95c0-.791-.5-1.186-1-1.45zm-9 5.4c0 .263-.25.527-.5.527H8.75c-.25 0-.5-.264-.5-.527V7.574c0-.132.125-.264.25-.395l3-1.712c.125-.132.625 0 .625.263v16.462H12zm8.75-.263c0 .263-.125.526-.5.395l-2.625-.79c-.5-.132-.625-.264-.625-.659v-.658c0-.396.25-.527.625-.396l2.75.922c.25.132.375.264.375.79v.396zm0-2.898c0 .264-.125.527-.5.395l-2.75-.658c-.375-.132-.5-.264-.5-.659v-.658c0-.395.25-.527.625-.395l2.75.922c.25.131.375.263.375.79v.263z"/>
</svg>
