<svg xmlns="http://www.w3.org/2000/svg" width="24" height="24" viewBox="0 0 24 24">
    <path fill="#9E9E9E" fill-rule="evenodd" d="M7.555 14.003l.73-.182a.416.416 0 0 0 .272-.594 4.752 4.752 0 0 1-.31-.764.416.416 0 0 0-.14-.205 1.782 1.782 0 0 1-.667-1.185l-.136-1.085c-.06-.485.082-.979.39-1.356a.417.417 0 0 0 .093-.299 6.08 6.08 0 0 1-.025-.469c0-.534.087-1.014.261-1.426a.418.418 0 0 0-.429-.576c-.43.046-.799.169-1.124.375-1.86.06-2.08 1.057-2.08 1.808 0 .155.03.453.056.693a.813.813 0 0 0-.394.803l.1.796c.035.292.224.531.502.645.101.506.344.999.687 1.386l-.079.315-1.4.35A2.452 2.452 0 0 0 2 15.418c0 .23.187.416.417.416h2.45a.415.415 0 0 0 .344-.182 4.026 4.026 0 0 1 2.344-1.649zm8.688.81l-1.997-.5-.137-.546a3.904 3.904 0 0 0 1.021-2.02.961.961 0 0 0 .603-.775l.136-1.087a.962.962 0 0 0-.514-.972l.043-.869.166-.167c.28-.298.658-.938.045-1.873-.436-.666-1.169-1.003-2.18-1.003-.386 0-1.268 0-2.105.546-2.416.064-2.73 1.267-2.73 2.316 0 .227.049.694.087 1.03a.955.955 0 0 0-.55.99l.136 1.087c.047.382.316.69.67.798.127.717.473 1.414.967 1.948l-.149.596-1.998.499a3.195 3.195 0 0 0-2.423 3.105c0 .23.187.416.417.416h12.5c.23 0 .416-.187.416-.417 0-1.47-.997-2.746-2.424-3.103zm3.895-1.78l-1.4-.35-.069-.277c.365-.397.623-.907.725-1.437a.816.816 0 0 0 .454-.632l.1-.797a.813.813 0 0 0-.372-.79l.026-.525.094-.094c.227-.243.537-.761.045-1.511-.235-.358-.72-.786-1.692-.786-.395 0-.743.053-1.065.164a.417.417 0 0 0-.27.488 2.06 2.06 0 0 1-.347 1.729.418.418 0 0 0-.001.492c.27.371.388.826.332 1.28l-.136 1.088c-.054.437-.269.84-.604 1.13a.421.421 0 0 0-.126.197 4.856 4.856 0 0 1-.336.837.416.416 0 0 0 .269.594l.68.17c.95.238 1.783.823 2.345 1.649a.416.416 0 0 0 .344.182h2.45c.23 0 .416-.187.416-.417 0-1.13-.765-2.11-1.862-2.385z"/>
</svg>
