<svg xmlns="http://www.w3.org/2000/svg" width="16" height="16" viewBox="0 0 16 16">
    <path fill="#41B4BE" fill-rule="evenodd" d="M3.333 12H6.16a.667.667 0 0 0 .473-.193l4.614-4.618 1.893-1.853a.666.666 0 0 0 0-.946l-2.827-2.86a.667.667 0 0 0-.946 0l-1.88 1.887L2.86 8.035a.666.666 0 0 0-.193.473v2.826c0 .368.298.667.666.667zM9.84 2.944l1.887 1.887-.947.946L8.893 3.89l.947-.947zM4 8.782L7.953 4.83 9.84 6.716l-3.953 3.952H4V8.782zm10 4.552H2a.667.667 0 1 0 0 1.333h12a.667.667 0 1 0 0-1.333z"/>
</svg>
