<?xml version="1.0" encoding="UTF-8"?>
<svg version="1.1" viewBox="0 0 33.495 33.521" xml:space="preserve" xmlns="http://www.w3.org/2000/svg" xmlns:cc="http://creativecommons.org/ns#" xmlns:dc="http://purl.org/dc/elements/1.1/" xmlns:rdf="http://www.w3.org/1999/02/22-rdf-syntax-ns#"><metadata><rdf:RDF><cc:Work rdf:about=""><dc:format>image/svg+xml</dc:format><dc:type rdf:resource="http://purl.org/dc/dcmitype/StillImage"/><dc:title/></cc:Work></rdf:RDF></metadata><defs><clipPath id="a"><path d="m0 30h30v-30h-30v30z"/></clipPath></defs><g transform="matrix(1.25 0 0 -1.25 -2.0468 35.547)"><g fill="#65ceef" fill-opacity="1"><g clip-path="url(#a)" fill="#65ceef" fill-opacity="1"><g transform="translate(24.235 18.067)" fill="#65ceef" fill-opacity="1"><path d="m0 0c-0.436 0.893-1.219 2.074-2.647 3.503-1.455 1.455-2.59 2.258-3.451 2.699l2.869 2.868c0.485-0.149 1.626-0.682 3.546-2.602 1.764-1.764 2.351-3.02 2.544-3.606l-2.861-2.862zm-13.295-13.295c-0.254 0.52-0.631 1.14-1.182 1.849l12.406 12.405c0.602-0.801 0.94-1.44 1.125-1.905l-12.349-12.349zm-6.426-1.486-1.202 1.265 0.773 5.415c0.699-0.323 1.787-1.029 3.329-2.57 1.445-1.445 2.141-2.577 2.485-3.341l-5.385-0.769zm15.498 18.072c0.223-0.205 0.452-0.422 0.698-0.667 0.248-0.248 0.45-0.476 0.656-0.706l-12.409-12.409c-0.205 0.226-0.425 0.458-0.665 0.698-0.24 0.241-0.471 0.462-0.695 0.668l12.415 12.416zm-2.805 1.98c0.431-0.178 1.048-0.522 1.861-1.168l-12.414-12.414c-0.705 0.569-1.307 0.958-1.812 1.217l12.365 12.365zm8.224 2.075c-3.477 3.478-4.905 3.002-4.905 3.002l-17.571-17.571-1.318-9.224 9.225 1.317 17.571 17.571s0.073 1.83-3.002 4.905" fill="#65ceef" fill-opacity="1"/></g></g></g></g></svg>

