<svg xmlns="http://www.w3.org/2000/svg" width="16" height="16" viewBox="0 0 16 16">
    <path fill="#41B4BE" fill-rule="evenodd" d="M12.2 2H3.8A1.8 1.8 0 0 0 2 3.8v.702c0 .248.051.493.15.72v.036c.085.193.205.368.354.516L6.2 9.446V13.4a.6.6 0 0 0 .6.6.6.6 0 0 0 .27-.066l2.4-1.2a.6.6 0 0 0 .33-.534V9.446l3.672-3.672c.15-.148.27-.323.354-.516v-.036a1.8 1.8 0 0 0 .174-.72V3.8A1.8 1.8 0 0 0 12.2 2zM8.774 8.774A.6.6 0 0 0 8.6 9.2v2.628l-1.2.6V9.2a.6.6 0 0 0-.174-.426L4.046 5.6h7.908l-3.18 3.174zM12.8 4.4H3.2v-.6a.6.6 0 0 1 .6-.6h8.4a.6.6 0 0 1 .6.6v.6z"/>
</svg>
