<svg xmlns="http://www.w3.org/2000/svg" width="24" height="24" viewBox="0 0 24 24">
    <path fill="#9E9E9E" fill-rule="evenodd" d="M7.02 15.104c.626.771 1.46 1.438 2.543 1.813.52.187 1.062.27 1.624.27.563 0 1.126-.104 1.646-.291a4.3 4.3 0 0 0 .771-.334 4.538 4.538 0 0 0-.437 1.917c0 1.104.437 2.125 1.125 2.896-.959.313-2 .48-3.063.48-3.396 0-6.375-1.668-8.229-4.21 1.604-1.187 3.167-2.062 4.02-2.54zm10.5-.041a3.396 3.396 0 1 1 0 6.792 3.396 3.396 0 0 1 0-6.793zm-.145 1.458l-1.938 1.937 1.938 1.938.625-.625-.854-.854H19.5V18h-2.354l.854-.854-.625-.625zM11.312 2.146c.855 0 1.626.208 2.313.604.583.313.98.708 1.208 1 .292.104.646.333.959.73.666.832.854 2.166.583 3.895.02.042.042.063.063.083.5.667.312 1.604.125 2.271-.125.417-.334 1.209-.834 1.667-.375 1.375-1.458 2.979-3.208 3.604-.417.146-.854.23-1.313.23-.437 0-.875-.084-1.291-.23-1.75-.604-2.834-2.208-3.209-3.604-.5-.48-.708-1.25-.833-1.667-.188-.666-.375-1.604.125-2.27.02-.042.042-.063.063-.084-.146-.813-.146-1.5.02-2.125a5.093 5.093 0 0 1 1.313-2.313c.354-.374.75-.687 1.167-.958.374-.27.791-.458 1.187-.604l.225-.068c.3-.08.6-.124.9-.14.146-.021.292-.021.438-.021zm-.541 4.125C7.5 4.875 7.208 8.917 7.208 8.917h-.062c-.333 0-.688.25-.313 1.562.271 1.021.542 1.292.75 1.313.188 1.208 1.125 2.75 2.667 3.27.313.105.646.167.98.167.332 0 .666-.062.978-.166 1.521-.542 2.48-2.084 2.667-3.292.188 0 .458-.292.75-1.313.354-1.312.02-1.562-.333-1.562h-.063v-.021c.063-.188.375-1.396-.666-2.104-.813.187-2.084.229-3.792-.5z"/>
</svg>
