<svg xmlns="http://www.w3.org/2000/svg" width="24" height="24" viewBox="0 0 24 24">
    <path fill="#9E9E9E" fill-rule="evenodd" d="M16.863 14.725a3.197 3.197 0 1 1-.001 6.394 3.197 3.197 0 0 1 0-6.394zm-9.883.02c.589.726 1.373 1.353 2.393 1.706.49.176 1 .255 1.529.255.53 0 1.059-.098 1.549-.275.255-.078.51-.196.725-.313a4.271 4.271 0 0 0-.411 1.804c0 1.039.411 2 1.059 2.725a9.533 9.533 0 0 1-10.627-3.51c1.509-1.117 2.98-1.94 3.783-2.392zm10.196 2.04c-.078-.04-.156 0-.156.078v.568h-1.765a.155.155 0 0 0-.157.157v.687c0 .078.078.137.157.137h1.765v.568c0 .079.098.118.156.079L18.666 18a.092.092 0 0 0 0-.157zm-5.98-14.648c1.294-.255 2.667.745 2.902 1.706.02 0 .02.02.04.02.235 0 2.274.235 1.725 3.921-.02.196-.04.412-.079.628.02.039.04.059.06.078.47.628.293 1.51.117 2.137-.118.393-.314 1.138-.785 1.57-.352 1.313-1.372 2.803-3.02 3.391a3.693 3.693 0 0 1-1.215.216c-.431 0-.843-.079-1.235-.216-1.647-.588-2.667-2.098-3.02-3.392-.47-.431-.666-1.176-.784-1.569-.177-.607-.353-1.51.118-2.117.02-.04.039-.059.058-.079-.215-1.058-.627-4 1.628-5.372 0 0-.49-.392-.451-.961 0 0 2.686.294 3.941.04zm3.549 6.76c-.013-.162-.343-3.77-3.353-2.485-1.608.686-2.804.647-3.588.47-.98.687-.706 1.804-.647 2v.02h-.059c-.314 0-.647.235-.314 1.47.275.942.53 1.216.726 1.236.176 1.137 1.078 2.588 2.51 3.098.294.098.607.157.921.157.314 0 .628-.06.922-.157 1.45-.51 2.333-1.96 2.51-3.098.196 0 .45-.275.725-1.235.353-1.216.02-1.471-.294-1.471h-.059z"/>
</svg>
