<svg xmlns="http://www.w3.org/2000/svg" width="24" height="25" viewBox="0 0 24 25">
    <path fill="#757575" fill-rule="evenodd" d="M12.167 2.5c-4.825 0-8.75 3.925-8.75 8.75 0 4.685 3.7 8.523 8.333 8.74v2.093a.416.416 0 0 0 .538.4c4.838-1.469 8.629-6.403 8.629-11.233 0-4.825-3.925-8.75-8.75-8.75zM8 12.5c-.69 0-1.25-.56-1.25-1.25S7.31 10 8 10s1.25.56 1.25 1.25S8.69 12.5 8 12.5zm4.167 0c-.69 0-1.25-.56-1.25-1.25s.56-1.25 1.25-1.25c.689 0 1.25.56 1.25 1.25s-.561 1.25-1.25 1.25zm4.166 0c-.689 0-1.25-.56-1.25-1.25s.561-1.25 1.25-1.25c.69 0 1.25.56 1.25 1.25s-.56 1.25-1.25 1.25z"/>
</svg>
