<svg xmlns="http://www.w3.org/2000/svg" width="24" height="27" viewBox="0 0 24 27">
    <path fill="#41B4BE" fill-rule="evenodd" d="M19 2.964c1.598 0 2.904 1.316 2.995 2.975l.005.186v14.75c0 1.683-1.249 3.06-2.824 3.155l-.176.006H5c-1.598 0-2.904-1.316-2.995-2.975L2 20.875V6.125c0-1.683 1.249-3.06 2.824-3.155L5 2.964h14zm0 2.107H5c-.515 0-.94.411-.994.94L4 6.124v14.75c0 .543.39.99.891 1.047L5 21.93h14c.515 0 .94-.411.994-.94l.006-.114V6.125c0-.582-.448-1.054-1-1.054zm-.833 6.805c.445 0 .818.39.869.91l.006.121v6.366c0 .514-.324.963-.754 1.024l-.1.007H5.832c-.425 0-.797-.39-.848-.91l-.006-.121v-6.366c0-.514.324-.963.753-1.024l.101-.007h12.334zM7.562 6.827c.424 0 .793.337.848.786l.007.114v1.866c0 .446-.32.835-.746.893l-.108.007h-1.73a.87.87 0 0 1-.852-.798l-.002-.102V7.727c0-.445.32-.835.746-.892l.108-.008h1.73zM14.5 9.088c.375 0 .667.33.667.703 0 .359-.259.645-.572.694l-.095.008H10c-.375 0-.667-.33-.667-.702 0-.36.259-.646.572-.695L10 9.088h4.5zm3.875-2.283c.354 0 .667.308.667.703 0 .359-.259.646-.572.695l-.095.007H10c-.375 0-.667-.329-.667-.702 0-.36.259-.646.572-.695L10 6.805h8.375z"/>
</svg>
