<svg xmlns="http://www.w3.org/2000/svg" xmlns:xlink="http://www.w3.org/1999/xlink" width="24" height="24" viewBox="0 0 24 24">
    <defs>
        <path id="a" d="M0 0h24v24H0z"/>
    </defs>
    <g fill="none" fill-rule="evenodd">
        <mask id="b" fill="#fff">
            <use xlink:href="#a"/>
        </mask>
        <path fill="#757575" d="M12 22a2 2 0 0 0 2-2h-4a2 2 0 0 0 2 2zm6-6v-5c0-3.075-1.635-5.64-4.5-6.32V4c0-.83-.67-1.5-1.5-1.5s-1.5.67-1.5 1.5v.68C7.635 5.36 6 7.925 6 11v5l-2 2v1h16v-1l-2-2zm-2 1H8v-6c0-2.485 1.515-4.5 4-4.5 2.485 0 4 2.015 4 4.5v6z" mask="url(#b)"/>
    </g>
</svg>
