<svg xmlns="http://www.w3.org/2000/svg" width="24" height="25" viewBox="0 0 24 25">
    <path fill="#757575" fill-rule="evenodd" d="M3.6 13.158v3.958c0 .952.774 1.726 1.726 1.726h.08v-2.058l2.858 2.858L5.406 22.5v-2.058h-.08A3.33 3.33 0 0 1 2 17.116v-3.958h1.6zm18.4 4.42v3.247c0 .923-.752 1.675-1.675 1.675h-9.666a1.677 1.677 0 0 1-1.675-1.675v-3.248H22zm-7.239 1.609h-3.607v1.6h3.607v-1.6zm5.564-5.487c.923 0 1.675.751 1.675 1.675v.602H8.984v-.602c0-.923.751-1.675 1.675-1.675zM18.594 2.5v2.058h.08A3.33 3.33 0 0 1 22 7.884v3.958h-1.6V7.884c0-.952-.774-1.726-1.726-1.726h-.08v2.058l-2.858-2.858L18.594 2.5zm-3.578 3.877v3.248c0 .923-.751 1.675-1.675 1.675H3.675A1.677 1.677 0 0 1 2 9.625V6.377h13.016zm-5.838 1.61H4.17v1.6h5.007v-1.6zM13.34 2.5c.924 0 1.675.752 1.675 1.675v.602H2v-.602C2 3.252 2.752 2.5 3.675 2.5z"/>
</svg>
