<svg xmlns="http://www.w3.org/2000/svg" width="56" height="56" viewBox="0 0 56 56">
    <path fill="#BDBDBD" fill-rule="evenodd" d="M44.333 30.333A2.333 2.333 0 0 0 42 32.667v.886L38.547 30.1a6.51 6.51 0 0 0-9.17 0l-1.634 1.633-5.786-5.786a6.65 6.65 0 0 0-9.17 0L9.333 29.4V16.333A2.333 2.333 0 0 1 11.667 14H28a2.333 2.333 0 0 0 0-4.667H11.667a7 7 0 0 0-7 7v28a7 7 0 0 0 7 7h28a7 7 0 0 0 7-7V32.667a2.333 2.333 0 0 0-2.334-2.334zM11.667 46.667a2.333 2.333 0 0 1-2.334-2.334v-8.33l6.767-6.766a1.843 1.843 0 0 1 2.543 0l7.397 7.396 10.033 10.034H11.667zM42 44.333c-.003.447-.15.88-.42 1.237L31.057 35l1.633-1.633a1.797 1.797 0 0 1 2.567 0L42 40.157v4.176zM52.99 10.01l-7-7a2.333 2.333 0 0 0-.77-.49 2.333 2.333 0 0 0-1.773 0 2.333 2.333 0 0 0-.77.49l-7 7a2.343 2.343 0 0 0 3.313 3.313L42 10.29v13.043a2.333 2.333 0 0 0 4.667 0V10.29l3.01 3.033a2.333 2.333 0 0 0 3.313 0 2.333 2.333 0 0 0 0-3.313z"/>
</svg>
