<?xml version="1.0" encoding="UTF-8"?>
<svg version="1.1" viewBox="0 0 26.162 33.289" xml:space="preserve" xmlns="http://www.w3.org/2000/svg" xmlns:cc="http://creativecommons.org/ns#" xmlns:dc="http://purl.org/dc/elements/1.1/" xmlns:rdf="http://www.w3.org/1999/02/22-rdf-syntax-ns#"><metadata><rdf:RDF><cc:Work rdf:about=""><dc:format>image/svg+xml</dc:format><dc:type rdf:resource="http://purl.org/dc/dcmitype/StillImage"/><dc:title/></cc:Work></rdf:RDF></metadata><defs><clipPath id="a"><path d="m0 30h30v-30h-30v30z"/></clipPath></defs><g transform="matrix(1.25 0 0 -1.25 -6.4062 35)"><g fill="#65cee1"><g transform="translate(6.625,26.5)"><path d="m0 0h10.997v-4.665h4.878v-6.835h1.5v7.508l-5.732 5.492h-13.143v-24.25h9.346v1.5h-7.846v21.25z" fill="#65cee1"/></g><path d="m20.75 19.375h-12.313v-1.5h12.313v1.5z"/><path d="m8.438 14.417h12.313v1.5h-12.313v-1.5z"/><g clip-path="url(#a)" fill="#65cee1"><g transform="translate(16.292,8.4141)" fill="#65cee1"><path d="m0 0c0 1.747 1.421 3.169 3.169 3.169 1.747 0 3.169-1.422 3.169-3.169s-1.422-3.169-3.169-3.169c-1.748 0-3.169 1.422-3.169 3.169m9.763-5.984-3.019 3.017c0.673 0.81 1.094 1.835 1.094 2.967 0 2.574-2.095 4.669-4.669 4.669-2.575 0-4.669-2.095-4.669-4.669s2.094-4.669 4.669-4.669c0.899 0 1.732 0.268 2.446 0.71l3.087-3.086 1.061 1.061z" fill="#65cee1"/></g></g></g></g></svg>

